<?xml version="1.0" encoding="UTF-8" standalone="no"?>
<!DOCTYPE svg PUBLIC "-//W3C//DTD SVG 1.1//EN" "http://www.w3.org/Graphics/SVG/1.1/DTD/svg11.dtd">
<svg width="100%" height="100%" viewBox="0 0 614 400" version="1.1" xmlns="http://www.w3.org/2000/svg" xmlns:xlink="http://www.w3.org/1999/xlink" xml:space="preserve" xmlns:serif="http://www.serif.com/" style="fill-rule:evenodd;clip-rule:evenodd;stroke-linecap:round;stroke-linejoin:round;stroke-miterlimit:1.5;">
    <g id="tiles">
        <g id="water" transform="matrix(1,0,0,1,0.666667,0.666667)">
            <path id="ska" d="M255.182,144.654L275.021,144.708L287.697,153.328L293.782,144.708L285.162,115.299L254.675,128.935L255.182,144.654Z" style="fill:rgb(187,222,251);stroke:white;stroke-width:1.33px;"/>
            <path id="nws" d="M139.371,0L174.232,68.197L167.893,96.086L180.57,99.255L251.558,81.508L351.703,19.393L352.97,0L139.371,0Z" style="fill:rgb(187,222,251);stroke:white;stroke-width:1.33px;"/>
            <path id="nao" d="M139.371,0L0,0L0,170.547L70.181,182.717L110.746,157.161L108.312,148.642L131.434,123.492L146.443,128.766L146.848,138.501L162.723,140.547L155.367,125.115L154.961,106.455L167.893,96.086L174.232,68.197L139.371,0" style="fill:rgb(187,222,251);stroke:white;stroke-width:1.33px;"/>
            <path id="irs" d="M70.181,182.717L98.576,194.886L125.019,187.183L144.928,177.08L137.186,168.148L153.027,153.063L162.723,140.547L146.848,138.501L139.371,159.226L110.746,157.161L70.181,182.717" style="fill:rgb(187,222,251);stroke:white;stroke-width:1.33px;"/>
            <path id="cha" d="M98.576,194.886L117.642,206.367L155.121,213.668L156.338,203.527L165.103,208.801L181.488,204.744L194.469,190.141L191.223,186.896L178.243,194.886L125.019,187.183L98.576,194.886Z" style="fill:rgb(187,222,251);stroke:white;stroke-width:1.33px;"/>
            <path id="nse" d="M194.469,190.141L222.814,178.25L229.322,155.303L255.182,144.654L254.675,128.935L246.171,113.217L251.558,81.508L180.57,99.255L187.743,112.202L181.658,129.95L189.264,160.373L199.912,166.694L191.223,186.896L194.469,190.141Z" style="fill:rgb(187,222,251);stroke:white;stroke-width:1.33px;"/>
            <path id="bas" d="M293.782,168.171L274.228,178.348L284.724,182.717L306,190.141L334.777,182.717L352.224,173.363L354.093,153.328L321.07,143.871L306,162.355L293.782,168.171Z" style="fill:rgb(187,222,251);stroke:white;stroke-width:1.33px;"/>
            <path id="gob" d="M321.07,143.871L330.336,123.469L322.547,107.568L341.045,76.414L344.939,64.407L354.093,76.09L348.509,103.998L368.954,122.171L401.73,119.899L365.708,143.871L354.093,153.328L321.07,143.871" style="fill:rgb(187,222,251);stroke:white;stroke-width:1.33px;"/>
            <path id="bar" d="M351.703,19.393L420.869,39.858L423.465,58.68L392.311,64.407L414.378,81.721L444.234,49.627L499.321,0L352.97,0L351.703,19.393Z" style="fill:rgb(187,222,251);stroke:white;stroke-width:1.33px;"/>
            <path id="mao" d="M117.642,206.367L117.642,216.96L139.371,228.642L124.436,281.085L79.522,264.469L63.167,282.512L39.023,333.397L66.022,341.704L75.888,352.349L74.849,357.281L6.571,398L0,398L0,170.547L70.181,182.717L98.576,194.886L117.642,206.367Z" style="fill:rgb(187,222,251);stroke:white;stroke-width:1.33px;"/>
            <path id="wem" d="M74.849,357.281L80.561,357.281L87.116,367.926L117.642,378.05L126.772,370.262L212.185,373.897L214.782,353.387L211.147,338.589L180.57,331.06L129.628,337.031L107.042,351.31L84.195,347.416L75.888,352.349L74.849,357.281Z" style="fill:rgb(187,222,251);stroke:white;stroke-width:1.33px;"/>
            <path id="gol" d="M211.147,338.589L211.666,331.06L222.83,331.06L222.83,323.142L220.493,313.017L229.06,306.527L246.171,308.863L242.82,297.7L214.782,293.027L204.137,299.777L174.232,292.767L165.103,311.459L123.916,325.738L129.628,337.031L180.57,331.06L211.147,338.589Z" style="fill:rgb(187,222,251);stroke:white;stroke-width:1.33px;"/>
            <path id="tys" d="M214.782,353.387L222.83,349.103L222.83,331.06L222.83,326.811L229.77,315.678L229.06,306.527L246.171,308.863L246.171,315.678L283.926,354.555L289.118,364.004L278.084,374.713L246.171,374.064L228.433,378.05L217.876,378.05L212.185,373.897L214.782,353.387Z" style="fill:rgb(187,222,251);stroke:white;stroke-width:1.33px;"/>
            <path id="ion" d="M228.433,378.05L223.89,398L383.553,398L383.553,392.075L373.168,383.313L368.949,387.532L365.38,378.05L361.4,386.234L357.267,378.05L361.4,371.63L344.286,354.555L337.471,348.59L325.464,354.555L314.161,360.597L306,349.888L301.45,354.555L306,368.71L281.654,383.313L278.084,374.713L269.647,389.154L246.171,374.064L228.433,378.05Z" style="fill:rgb(187,222,251);stroke:white;stroke-width:1.33px;"/>
            <path id="ads" d="M337.471,348.59L336.7,332.091L333.901,323.277L289.118,299.263L280.031,284.274L267.7,284.274L266.726,292.767L279.058,306.527L284.25,321.655L303.721,331.06L325.464,354.555L337.471,348.59Z" style="fill:rgb(187,222,251);stroke:white;stroke-width:1.33px;"/>
            <path id="aeg" d="M373.168,383.313L372.353,378.05L378.867,378.05L385.513,368.202L374.214,361.954L368.233,346.136L378.468,352.384L386.31,336.965L405.202,335.741L414.548,338.589L409.615,348.59L416.365,364.299L429.346,373.295L412.211,389.482L383.553,392.075L373.168,383.313Z" style="fill:rgb(187,222,251);stroke:white;stroke-width:1.33px;"/>
            <path id="eme" d="M412.211,389.482L408.187,398L515.733,398L514.175,363.908L505.608,366.765L499.321,363.908L477.05,373.295L457.579,373.295L457.579,378.05L439.925,382.342L438.368,373.295L429.346,373.295L412.211,389.482Z" style="fill:rgb(187,222,251);stroke:white;stroke-width:1.33px;"/>
            <path id="bls" d="M431.466,315.678L440.439,321.317L461.96,321.649L493.774,302.541L515.733,310.849L541.46,296.892L518.697,278.615L499.321,269.145L483.472,280.942L475.165,281.274L464.365,273.465L475.165,264.16L439.276,273.299L429.346,295.729L431.466,315.678Z" style="fill:rgb(187,222,251);stroke:white;stroke-width:1.33px;"/>
            <path id="hel" d="M249.721,146.903L229.322,155.303L222.814,178.25L240,178L249,174L253.813,178L258,173L255.5,168L249.721,146.903Z" style="fill:rgb(187,222,251);stroke:white;stroke-width:1.33px;"/>
        </g>
        <g id="coast" transform="matrix(1,0,0,1,0.666667,0.666667)">
            <path id="wal" d="M169.05,193.556L166.867,174.644L174.779,169.199L174.608,164.52L153.027,153.063L137.186,168.148L144.928,177.08L125.019,187.183L169.05,193.556Z" style="fill:rgb(219,10,91);stroke:white;stroke-width:1.33px;"/>
            <path id="lon" d="M169.05,193.556L178.243,194.886L191.223,186.896L199.912,166.694L189.264,160.373L174.779,169.199L166.867,174.644L169.05,193.556Z" style="fill:rgb(219,10,91);stroke:white;stroke-width:1.33px;"/>
            <path id="yor" d="M189.264,160.373L187.07,146.596L183.662,137.967L174.779,136.636L174.608,164.52L174.779,169.199L189.264,160.373Z" style="fill:rgb(219,10,91);stroke:white;stroke-width:1.33px;"/>
            <path id="lpl" d="M174.779,136.636L166.867,122.546L155.367,125.115L162.723,140.547L153.027,153.063L174.608,164.52L174.779,136.636Z" style="fill:rgb(219,10,91);stroke:white;stroke-width:1.33px;"/>
            <path id="cly" d="M166.867,122.546L170.13,111.494L174.779,97.807L167.893,96.086L154.961,106.455L155.367,125.115L166.867,122.546Z" style="fill:rgb(219,10,91);stroke:white;stroke-width:1.33px;"/>
            <path id="edi" d="M166.867,122.546L174.779,136.636L183.662,137.967L181.658,129.95L187.743,112.202L180.57,99.255L174.779,97.807L170.13,111.494L166.867,122.546Z" style="fill:rgb(219,10,91);stroke:white;stroke-width:1.33px;"/>
            <path id="gas" d="M124.436,281.085L151,298L167,273L181,273L162.465,248L134.564,245.522L124.436,281.085Z" style="fill:rgb(34,167,240);stroke:white;stroke-width:1.33px;"/>
            <path id="bre" d="M162.465,248L174.232,206.541L165.103,208.801L156.338,203.527L155.121,213.668L117.642,206.367L117.642,216.96L139.371,229.595L134.564,245.522L162.465,248Z" style="fill:rgb(34,167,240);stroke:white;stroke-width:1.33px;"/>
            <path id="mar" d="M181,273L189,268L191,259L206,260L216,266L214.782,293.027L204.137,299.777L174.232,292.767L165.103,311.459L151,298L167,273L181,273Z" style="fill:rgb(34,167,240);stroke:white;stroke-width:1.33px;"/>
            <path id="pic" d="M209,211L185.454,200.282L183.181,203.527L174.232,206.541L170.621,219.265L203.896,219.707L209,211Z" style="fill:rgb(34,167,240);stroke:white;stroke-width:1.33px;"/>
            <path id="pie" d="M242.82,297.7L246.171,294L250,272L246.171,263L242,270L230,264L216,266L214.782,293.027C214.782,293.027 242.34,297.482 242.82,297.7Z" style="fill:rgb(76,217,100);stroke:white;stroke-width:1.33px;"/>
            <path id="ven" d="M246.171,294L262,302L268,315.678L279,329L284.25,321.655L279.058,306.527L266.726,292.767L267.7,284.274L280.031,284.274L287,270L277,266L266.726,271L258,276L250,272L246.171,294Z" style="fill:rgb(76,217,100);stroke:white;stroke-width:1.33px;"/>
            <path id="rom" d="M279,329L287,336L275.593,345.975L253.813,323.548L268,315.678L279,329Z" style="fill:rgb(76,217,100);stroke:white;stroke-width:1.33px;"/>
            <path id="apu" d="M301.45,354.555L306,349.888L314.161,360.597L325.464,354.555L303.882,331.235L284.25,321.655L279,329L287,336L301.45,354.555Z" style="fill:rgb(76,217,100);stroke:white;stroke-width:1.33px;"/>
            <path id="nap" d="M246.171,374.064L269.647,389.154L278.084,374.713L246.171,374.064ZM287,336L301.45,354.555L306,368.71L281.654,383.313L278.084,374.713L289.118,364.004L283.926,354.555L275.593,345.975L287,336Z" style="fill:rgb(76,217,100);stroke:white;stroke-width:1.33px;"/>
            <g id="tus" transform="matrix(1,0,0,1,0.466518,0)">
                <path d="M222.83,326.811L220.493,313.017L229.06,306.527L229.77,315.678L222.83,326.811ZM268,315.678L253.813,323.548L246.171,315.678L246.171,308.863L243.001,297.5L246.171,294L262,302L268,315.678Z" style="fill:rgb(76,217,100);stroke:white;stroke-width:1.33px;"/>
            </g>
            <path id="kie" d="M240,178L249,174L253.813,178L258,173L255.5,168L268,169L274.896,178L270.123,213L255.5,219.564L248,206L230.152,196.575L243.001,188L240,178Z" style="fill:rgb(248,148,6);stroke:white;stroke-width:1.33px;"/>
            <path id="ber" d="M275.593,214L283.405,209.995L308,209.995L306,190.141L274.896,178.626L270.407,213L275.593,214Z" style="fill:rgb(248,148,6);stroke:white;stroke-width:1.33px;"/>
            <path id="pru" d="M322.906,211L331,201.045L356,199L364,184L352.224,173.363L334.777,182.717L306,190.141L308,209.995L322.906,211Z" style="fill:rgb(248,148,6);stroke:white;stroke-width:1.33px;"/>
            <path id="sew" d="M422,256L439.276,273.299L475.165,264.16L464.365,273.465L475.165,281.274L483.472,280.942L499.321,269.145L518.697,278.615L541.46,296.892L612,297.7L612,286.122L584.724,258.5L583.605,234.614L574,226L538,213L524,188L490,184L460,201L457,223L436,238L422,256Z" style="fill:rgb(154,18,179);stroke:white;stroke-width:1.33px;"/>
            <path id="liv" d="M373,199L393,188L396,162L371.593,139.955L354.093,153.328L352.224,173.363L364,184L359.637,192.182L373,199Z" style="fill:rgb(154,18,179);stroke:white;stroke-width:1.33px;"/>
            <path id="stp" d="M396,162L371.593,139.955L401.73,119.899L392.231,120.558L392,82L366.5,39L372.524,25.553L420.869,39.858L423.465,58.68L392.311,64.407L414.378,81.721L445.083,48.863L499.321,0L612,0L612,51L447,123L445,148L434,144L396,162Z" style="fill:rgb(154,18,179);stroke:white;stroke-width:1.33px;"/>
            <path id="fin" d="M392.231,120.558L368.954,122.171L348.509,103.998L354.093,76.09L344.939,64.407L330,44.372L366.5,39L392,82L392.231,120.558Z" style="fill:rgb(154,18,179);stroke:white;stroke-width:1.33px;"/>
            <path id="con" d="M405.202,335.741L413,324.908L412,318L431.466,315.678L440.439,321.317L461.96,321.649L470,347L413.292,357.146L409.615,348.59L414.548,338.589L405.202,335.741Z" style="fill:rgb(247,202,24);stroke:white;stroke-width:1.33px;"/>
            <path id="smy" d="M470,347L489.25,338L509,339L533,327.246L541.46,343.649L514.175,363.908L505.608,366.765L499.321,363.908L477.05,373.295L457.579,373.295L457.579,378.05L439.925,382.342L438.368,373.295L429.346,373.295L416.365,364.299L413.292,357.146L470,347Z" style="fill:rgb(247,202,24);stroke:white;stroke-width:1.33px;"/>
            <path id="ank" d="M533,327.246L530.938,302.6L515.733,310.849L493.774,302.541L461.96,321.649L470,347L489.25,338L509,339L533,327.246Z" style="fill:rgb(247,202,24);stroke:white;stroke-width:1.33px;"/>
            <path id="arm" d="M541.46,343.649L612,359L612,297.7L541.46,296.892L530.938,302.6L533,327.246L541.46,343.649Z" style="fill:rgb(247,202,24);stroke:white;stroke-width:1.33px;"/>
            <path id="syr" d="M612,359L612,398L515.733,398L514.175,363.908L541.46,343.649L612,359Z" style="fill:rgb(247,202,24);stroke:white;stroke-width:1.33px;"/>
            <path id="naf" d="M6.571,398L74.849,357.281L80.561,357.281L87.116,367.926L117.642,378.05L126.772,370.262L199.129,373.341L193,397.651L6.571,398Z" style="fill:rgb(231,231,231);stroke:white;stroke-width:1.33px;"/>
            <path id="spa" d="M165.103,311.459L123.916,325.738L129.628,337.031L107.042,351.31L84.195,347.416L75.888,352.349L66.022,341.704L55.898,338.589L82,292.767L63.167,282.512L79.522,264.469L124.436,281.085L151,298L165.103,311.459Z" style="fill:rgb(231,231,231);stroke:white;stroke-width:1.33px;"/>
            <path id="por" d="M55.898,338.589L39.023,333.397L63.167,282.512L82,292.767L55.898,338.589" style="fill:rgb(231,231,231);stroke:white;stroke-width:1.33px;"/>
            <path id="tun" d="M193,397.651L223,398L228.433,378.05L217.876,378.05L212.185,373.897L199.129,373.341L193,397.651Z" style="fill:rgb(231,231,231);stroke:white;stroke-width:1.33px;"/>
            <path id="bel" d="M216,216L225.132,209L225.132,199L209.89,183.671L194.469,190.141L185.454,200.282L209,211L216,216Z" style="fill:rgb(231,231,231);stroke:white;stroke-width:1.33px;"/>
            <path id="hol" d="M225.132,209L230.152,196.575L243.001,188L240,178L222.814,178.25L209.89,183.671L225.132,199L225.132,209Z" style="fill:rgb(231,231,231);stroke:white;stroke-width:1.33px;"/>
            <path id="rum" d="M366.5,292.905L373,302.541L429.346,295.729L439.276,273.299L422,256L396,238L396,251L388,261L400,269L397,280.35L366.5,292.905Z" style="fill:rgb(231,231,231);stroke:white;stroke-width:1.33px;"/>
            <path id="bul" d="M373,302.541L368.233,335.741L386.31,336.965L405.202,335.741L412.98,324.771L412,318L431.466,315.678L429.346,295.729L373,302.541" style="fill:rgb(231,231,231);stroke:white;stroke-width:1.33px;"/>
            <path id="gre" d="M368.233,335.741L344.286,354.555L361.4,371.63L357.317,378.151L361.4,386.234L365.38,378.05L368.949,387.532L373.168,383.313L372.353,378.05L378.867,378.05L385.513,368.202L374.214,361.954L368.233,346.136L378.468,352.384L386.31,336.965L368.233,335.741Z" style="fill:rgb(231,231,231);stroke:white;stroke-width:1.33px;"/>
            <path id="alb" d="M348.583,316.368L333.901,323.277L336.7,332.091L337.471,348.59L344.286,354.555L353.335,347.446L348.583,316.368Z" style="fill:rgb(231,231,231);stroke:white;stroke-width:1.33px;"/>
            <path id="den" d="M255.5,168L249.721,146.903L255.182,144.654L275.021,144.708L287.697,153.328L293.712,168L274.815,178.592L268,169L255.5,168Z" style="fill:rgb(231,231,231);stroke:white;stroke-width:1.33px;"/>
            <path id="swe" d="M287.697,153.328L293.712,144.807L285.162,115.299L293.712,79L330,44.372L344.939,64.407L341.045,76.414L322.547,107.568L330.336,123.469L321.07,143.871L306,162.355L293.712,168.207L287.697,153.328Z" style="fill:rgb(231,231,231);stroke:white;stroke-width:1.33px;"/>
            <path id="nor" d="M285.162,115.299L254.675,128.935L246.171,113.217L251.558,81.508L351.703,19.393L372.524,25.553L366.5,39L330,44.372L293.782,78.933L285.162,115.299Z" style="fill:rgb(231,231,231);stroke:white;stroke-width:1.33px;"/>
            <path id="tri" d="M312.25,258.5L317,275L328,278L330,290L340,295L348.583,316.368L333.901,323.277L289.118,299.263L280.031,284.274L287,270L295,258L301,263L312.25,258.5Z" style="fill:rgb(242,38,19);stroke:white;stroke-width:1.33px;"/>
        </g>
        <g id="land" transform="matrix(1,0,0,1,0.666667,0.666667)">
            <path id="bur" d="M170.621,259L192,240L209,211L216,216L223,238L206,260L191,259L189,268L181,273L170.621,259Z" style="fill:rgb(34,167,240);stroke:white;stroke-width:1.33px;"/>
            <path id="par" d="M203.896,219.707L170.621,219.265L162.465,248L170.621,259L192,240L203.896,219.707Z" style="fill:rgb(34,167,240);stroke:white;stroke-width:1.33px;"/>
            <path id="muc" d="M223,238L246.171,245L270.123,251L278.084,241L266.726,230L279,222L275.593,214L270.123,213L255.182,219.707L241,219.707L220.96,231.587L223,238Z" style="fill:rgb(248,148,6);stroke:white;stroke-width:1.33px;"/>
            <path id="ruh" d="M255.5,219.564L248,206L230.152,196.575L225.132,209L216,216L220.96,231.587L241,219.707L255.5,219.564Z" style="fill:rgb(248,148,6);stroke:white;stroke-width:1.33px;"/>
            <path id="sil" d="M279,222L302.232,221L311,230L330,229L322.906,211L308,209.995L283.405,209.995L275.593,214L279,222Z" style="fill:rgb(248,148,6);stroke:white;stroke-width:1.33px;"/>
            <path id="tyr" d="M248.038,245.468L246.171,263L249.98,272.116L258,276L277,266L287,270L295,258L292,242L278.084,241L270.407,250.643L248.038,245.468Z" style="fill:rgb(242,38,19);stroke:white;stroke-width:1.33px;"/>
            <path id="boh" d="M292,242L301,233.854L319,236L318.635,229.598L311,230L302.232,221L279,222L267.017,230.282L278.084,241L292,242Z" style="fill:rgb(242,38,19);stroke:white;stroke-width:1.33px;"/>
            <path id="vie" d="M295,258L301,263L321,255L326,249.854L333,246L333,241L319,236L301,233.854L292,242L295,258Z" style="fill:rgb(242,38,19);stroke:white;stroke-width:1.33px;"/>
            <path id="bud" d="M340,295L365,293L397,280.35L400,269L388,261L362,242L333,246L326,249.854L321.486,254.5L312.25,258.5L317,275L328,278L330,290L340,295Z" style="fill:rgb(242,38,19);stroke:white;stroke-width:1.33px;"/>
            <path id="gal" d="M330,229L345,224L356,226.5L372,223L378,228L396,238L396,251L388,261L362,242L333,246L333,241L319,236L318.635,229.598L330,229Z" style="fill:rgb(242,38,19);stroke:white;stroke-width:1.33px;"/>
            <path id="war" d="M330,229L345,224L356,226.5L372,223L378,228L380,216L373,199L359.637,192.182L356,199L331,201.045L322.906,211L330,229Z" style="fill:rgb(154,18,179);stroke:white;stroke-width:1.33px;"/>
            <path id="ukr" d="M396,238L422,256L436,238L457,223L460,201L411.104,205L380,216L378,228L396,238Z" style="fill:rgb(154,18,179);stroke:white;stroke-width:1.33px;"/>
            <path id="mos" d="M396,162L434,144L445,148L447,123L612,51L611.919,210.591L583.605,234.614L574,226L538,213L524,188L490,184L460,201L411.104,205L380,216L373,199L393,188L396,162Z" style="fill:rgb(154,18,179);stroke:white;stroke-width:1.33px;"/>
            <path id="ser" d="M348.583,316.368L353.335,347.446L368.233,335.741L373,302.541L366.5,292.905L340,295L348.583,316.368Z" style="fill:rgb(231,231,231);stroke:white;stroke-width:1.33px;"/>
        </g>
        <g id="unpassable" transform="matrix(1,0,0,1,0.666667,0.666667)">
            <path id="unp5" d="M110.746,157.161L139.371,159.226L146.848,138.501L146.443,128.766L131.434,123.492L108.312,148.642L110.746,157.161Z" style="fill:white;stroke:white;stroke-width:1.33px;"/>
            <path id="unp4" d="M210.717,338.483L211.666,331.06L222.83,331.06L222.83,349.103L214.782,353.387L210.717,338.483Z" style="fill:white;stroke:white;stroke-width:1.33px;"/>
            <path id="unp3" d="M383.553,398L408.187,398L412.211,389.482L383.553,392.075L383.553,398Z" style="fill:white;stroke:white;stroke-width:1.33px;"/>
            <path id="unp2" d="M206,260L216,266L230,264L242,270L246.171,263L248.038,245.468L223,238L206,260Z" style="fill:white;stroke:white;stroke-width:1.33px;"/>
            <path id="unp1" d="M612,286.122L584.435,258.208L583.605,234.614L612,210.522L612,286.122Z" style="fill:rgb(187,222,251);stroke:white;stroke-width:1.33px;"/>
        </g>
    </g>
    <g id="names" transform="matrix(1,0,0,1,0.666667,0.666667)">
        <text x="195.68px" y="248.674px" style="font-family:'Arial-BoldMT', 'Arial', sans-serif;font-weight:700;font-size:6.667px;fill:white;">bur</text>
        <g transform="matrix(1,0,0,1,-4.61296,0.242788)">
            <text x="176.176px" y="232.316px" style="font-family:'Arial-BoldMT', 'Arial', sans-serif;font-weight:700;font-size:6.667px;fill:white;">par</text>
        </g>
        <g transform="matrix(1,0,0,1,-5.69032,-0.118547)">
            <text x="240.964px" y="233.907px" style="font-family:'Arial-BoldMT', 'Arial', sans-serif;font-weight:700;font-size:6.667px;fill:white;">muc</text>
        </g>
        <text x="226.346px" y="216.071px" style="font-family:'Arial-BoldMT', 'Arial', sans-serif;font-weight:700;font-size:6.667px;fill:white;">ruh</text>
        <g transform="matrix(1,0,0,1,-0.00341625,2.76319)">
            <text x="290.204px" y="214.917px" style="font-family:'Arial-BoldMT', 'Arial', sans-serif;font-weight:700;font-size:6.667px;fill:white;">sil</text>
        </g>
        <g transform="matrix(1,0,0,1,-9.12677,0.13422)">
            <text x="260.572px" y="258.568px" style="font-family:'Arial-BoldMT', 'Arial', sans-serif;font-weight:700;font-size:6.667px;fill:white;">tyr</text>
        </g>
        <g transform="matrix(1,0,0,1,-8.79122,3.28832)">
            <text x="283.12px" y="230.248px" style="font-family:'Arial-BoldMT', 'Arial', sans-serif;font-weight:700;font-size:6.667px;fill:white;">boh</text>
        </g>
        <g transform="matrix(1,0,0,1,3.88839,0.474194)">
            <text x="301.944px" y="243.341px" style="font-family:'Arial-BoldMT', 'Arial', sans-serif;font-weight:700;font-size:6.667px;fill:white;">vie</text>
        </g>
        <text x="359.615px" y="272.963px" style="font-family:'Arial-BoldMT', 'Arial', sans-serif;font-weight:700;font-size:6.667px;fill:white;">bud</text>
        <g transform="matrix(1,0,0,1,33.5543,11.01)">
            <text x="339.954px" y="232.2px" style="font-family:'Arial-BoldMT', 'Arial', sans-serif;font-weight:700;font-size:6.667px;fill:white;">gal</text>
        </g>
        <text x="342.563px" y="217.714px" style="font-family:'Arial-BoldMT', 'Arial', sans-serif;font-weight:700;font-size:6.667px;fill:white;">war</text>
        <g transform="matrix(1,0,0,1,-3.60446,45.2197)">
            <text x="413.751px" y="179.846px" style="font-family:'Arial-BoldMT', 'Arial', sans-serif;font-weight:700;font-size:6.667px;fill:white;">ukr</text>
        </g>
        <g transform="matrix(1,0,0,1,90.767,-16.3839)">
            <text x="413.751px" y="179.846px" style="font-family:'Arial-BoldMT', 'Arial', sans-serif;font-weight:700;font-size:6.667px;fill:white;">mos</text>
        </g>
        <g transform="matrix(1,0,0,1,10.3901,19.019)">
            <text x="345.128px" y="308.733px" style="font-family:'Arial-BoldMT', 'Arial', sans-serif;font-weight:700;font-size:6.667px;">ser</text>
        </g>
        <text x="264.605px" y="135.477px" style="font-family:'Arial-BoldMT', 'Arial', sans-serif;font-weight:700;font-size:6.667px;">ska</text>
        <text x="201.368px" y="39.957px" style="font-family:'Arial-BoldMT', 'Arial', sans-serif;font-weight:700;font-size:6.667px;">nws</text>
        <text x="64.279px" y="93.466px" style="font-family:'Arial-BoldMT', 'Arial', sans-serif;font-weight:700;font-size:6.667px;">nao</text>
        <text x="104.963px" y="178.151px" style="font-family:'Arial-BoldMT', 'Arial', sans-serif;font-weight:700;font-size:6.667px;">irs</text>
        <text x="126.19px" y="197.609px" style="font-family:'Arial-BoldMT', 'Arial', sans-serif;font-weight:700;font-size:6.667px;">cha</text>
        <text x="196.033px" y="138.877px" style="font-family:'Arial-BoldMT', 'Arial', sans-serif;font-weight:700;font-size:6.667px;">nse</text>
        <text x="305.898px" y="176.88px" style="font-family:'Arial-BoldMT', 'Arial', sans-serif;font-weight:700;font-size:6.667px;">bas</text>
        <text x="341.137px" y="121.602px" style="font-family:'Arial-BoldMT', 'Arial', sans-serif;font-weight:700;font-size:6.667px;">gob</text>
        <text x="397.797px" y="17.266px" style="font-family:'Arial-BoldMT', 'Arial', sans-serif;font-weight:700;font-size:6.667px;">bar</text>
        <text x="32.453px" y="236.884px" style="font-family:'Arial-BoldMT', 'Arial', sans-serif;font-weight:700;font-size:6.667px;">mao</text>
        <text x="126.535px" y="355.842px" style="font-family:'Arial-BoldMT', 'Arial', sans-serif;font-weight:700;font-size:6.667px;">wem</text>
        <text x="181.371px" y="318.253px" style="font-family:'Arial-BoldMT', 'Arial', sans-serif;font-weight:700;font-size:6.667px;">gol</text>
        <text x="233.995px" y="349.651px" style="font-family:'Arial-BoldMT', 'Arial', sans-serif;font-weight:700;font-size:6.667px;">tys</text>
        <text x="311.384px" y="385.913px" style="font-family:'Arial-BoldMT', 'Arial', sans-serif;font-weight:700;font-size:6.667px;">ion</text>
        <text x="292.811px" y="315.776px" style="font-family:'Arial-BoldMT', 'Arial', sans-serif;font-weight:700;font-size:6.667px;">ads</text>
        <text x="392.222px" y="371.32px" style="font-family:'Arial-BoldMT', 'Arial', sans-serif;font-weight:700;font-size:6.667px;">aeg</text>
        <g transform="matrix(1,0,0,1,0,-1)">
            <text x="456.964px" y="390.424px" style="font-family:'Arial-BoldMT', 'Arial', sans-serif;font-weight:700;font-size:6.667px;">eme</text>
        </g>
        <text x="446.35px" y="294.019px" style="font-family:'Arial-BoldMT', 'Arial', sans-serif;font-weight:700;font-size:6.667px;">bls</text>
        <g transform="matrix(1,0,0,1,3.22122,-4.02653)">
            <text x="234.968px" y="165.244px" style="font-family:'Arial-BoldMT', 'Arial', sans-serif;font-weight:700;font-size:6.667px;">hel</text>
        </g>
        <text x="151.459px" y="171.642px" style="font-family:'Arial-BoldMT', 'Arial', sans-serif;font-weight:700;font-size:6.667px;fill:white;">wal</text>
        <g transform="matrix(1,0,0,1,8.06129,-12.6136)">
            <text x="176.223px" y="182.786px" style="font-family:'Arial-BoldMT', 'Arial', sans-serif;font-weight:700;font-size:6.667px;fill:white;">lon</text>
        </g>
        <g transform="matrix(1,0,0,1,-2,0)">
            <text x="178.346px" y="159.083px" style="font-family:'Arial-BoldMT', 'Arial', sans-serif;font-weight:700;font-size:6.667px;fill:white;">yor</text>
        </g>
        <g transform="matrix(1,0,0,1,0.732796,-3.19265)">
            <text x="164.548px" y="150.592px" style="font-family:'Arial-BoldMT', 'Arial', sans-serif;font-weight:700;font-size:6.667px;fill:white;">lpl</text>
        </g>
        <g transform="matrix(1,0,0,1,-3.28452,4.83678)">
            <text x="159.242px" y="114.507px" style="font-family:'Arial-BoldMT', 'Arial', sans-serif;font-weight:700;font-size:6.667px;fill:white;">cly</text>
        </g>
        <g transform="matrix(1,0,0,1,0.606965,-4.24878)">
            <text x="172.685px" y="115.922px" style="font-family:'Arial-BoldMT', 'Arial', sans-serif;font-weight:700;font-size:6.667px;fill:white;">edi</text>
        </g>
        <text x="141.199px" y="268.4px" style="font-family:'Arial-BoldMT', 'Arial', sans-serif;font-weight:700;font-size:6.667px;fill:white;">gas</text>
        <text x="146.152px" y="225.239px" style="font-family:'Arial-BoldMT', 'Arial', sans-serif;font-weight:700;font-size:6.667px;fill:white;">bre</text>
        <text x="182.237px" y="284.32px" style="font-family:'Arial-BoldMT', 'Arial', sans-serif;font-weight:700;font-size:6.667px;fill:white;">mar</text>
        <g transform="matrix(1,0,0,1,-2.51658,2.51658)">
            <text x="180.291px" y="212.15px" style="font-family:'Arial-BoldMT', 'Arial', sans-serif;font-weight:700;font-size:6.667px;fill:white;">pic</text>
        </g>
        <text x="222.037px" y="282.198px" style="font-family:'Arial-BoldMT', 'Arial', sans-serif;font-weight:700;font-size:6.667px;fill:white;">pie</text>
        <text x="254.231px" y="284.674px" style="font-family:'Arial-BoldMT', 'Arial', sans-serif;font-weight:700;font-size:6.667px;fill:white;">ven</text>
        <g transform="matrix(1,0,0,1,-1,8)">
            <text x="266.613px" y="327.481px" style="font-family:'Arial-BoldMT', 'Arial', sans-serif;font-weight:700;font-size:6.667px;fill:white;">rom</text>
        </g>
        <text x="299.868px" y="343.047px" style="font-family:'Arial-BoldMT', 'Arial', sans-serif;font-weight:700;font-size:6.667px;fill:white;">apu</text>
        <g transform="matrix(1,0,0,1,-1.81134,12.0001)">
            <text x="293.493px" y="356.542px" style="font-family:'Arial-BoldMT', 'Arial', sans-serif;font-weight:700;font-size:6.667px;fill:white;">nap</text>
        </g>
        <text x="252.035px" y="307.897px" style="font-family:'Arial-BoldMT', 'Arial', sans-serif;font-weight:700;font-size:6.667px;fill:white;">tus</text>
        <text x="248.718px" y="190.156px" style="font-family:'Arial-BoldMT', 'Arial', sans-serif;font-weight:700;font-size:6.667px;fill:white;">kie</text>
        <text x="285.202px" y="196.789px" style="font-family:'Arial-BoldMT', 'Arial', sans-serif;font-weight:700;font-size:6.667px;fill:white;">ber</text>
        <text x="316.157px" y="196.789px" style="font-family:'Arial-BoldMT', 'Arial', sans-serif;font-weight:700;font-size:6.667px;fill:white;">pru</text>
        <g transform="matrix(1,0,0,1,11.9453,-1.20795)">
            <text x="479.78px" y="229.956px" style="font-family:'Arial-BoldMT', 'Arial', sans-serif;font-weight:700;font-size:6.667px;fill:white;">sew</text>
        </g>
        <text x="367.566px" y="168.597px" style="font-family:'Arial-BoldMT', 'Arial', sans-serif;font-weight:700;font-size:6.667px;fill:white;">liv</text>
        <text x="447.718px" y="85.681px" style="font-family:'Arial-BoldMT', 'Arial', sans-serif;font-weight:700;font-size:6.667px;fill:white;">stp</text>
        <text x="364.802px" y="96.183px" style="font-family:'Arial-BoldMT', 'Arial', sans-serif;font-weight:700;font-size:6.667px;fill:white;">ﬁn</text>
        <text x="434.452px" y="338.3px" style="font-family:'Arial-BoldMT', 'Arial', sans-serif;font-weight:700;font-size:6.667px;fill:white;">con</text>
        <text x="454.905px" y="361.517px" style="font-family:'Arial-BoldMT', 'Arial', sans-serif;font-weight:700;font-size:6.667px;fill:white;">smy</text>
        <text x="486.413px" y="324.481px" style="font-family:'Arial-BoldMT', 'Arial', sans-serif;font-weight:700;font-size:6.667px;fill:white;">ank</text>
        <text x="558.827px" y="317.847px" style="font-family:'Arial-BoldMT', 'Arial', sans-serif;font-weight:700;font-size:6.667px;fill:white;">arm</text>
        <text x="532.846px" y="377.547px" style="font-family:'Arial-BoldMT', 'Arial', sans-serif;font-weight:700;font-size:6.667px;fill:white;">syr</text>
        <text x="69.342px" y="381.969px" style="font-family:'Arial-BoldMT', 'Arial', sans-serif;font-weight:700;font-size:6.667px;">naf</text>
        <text x="90.984px" y="319.088px" style="font-family:'Arial-BoldMT', 'Arial', sans-serif;font-weight:700;font-size:6.667px;">spa</text>
        <g transform="matrix(1,0,0,1,0,-3.5232)">
            <text x="51.474px" y="324.289px" style="font-family:'Arial-BoldMT', 'Arial', sans-serif;font-weight:700;font-size:6.667px;">por</text>
        </g>
        <g transform="matrix(1,0,0,1,-2.42574,-1.74853)">
            <text x="202.216px" y="389.049px" style="font-family:'Arial-BoldMT', 'Arial', sans-serif;font-weight:700;font-size:6.667px;">tun</text>
        </g>
        <g transform="matrix(1,0,0,1,-5.92401,2.91345)">
            <text x="199.196px" y="198.377px" style="font-family:'Arial-BoldMT', 'Arial', sans-serif;font-weight:700;font-size:6.667px;">bel</text>
        </g>
        <g transform="matrix(1,0,0,1,7.17815,-2.04796)">
            <text x="223.691px" y="190.491px" style="font-family:'Arial-BoldMT', 'Arial', sans-serif;font-weight:700;font-size:6.667px;">hol</text>
        </g>
        <g transform="matrix(1,0,0,1,-6.31358,-8.8476)">
            <text x="412.098px" y="283.688px" style="font-family:'Arial-BoldMT', 'Arial', sans-serif;font-weight:700;font-size:6.667px;">rum</text>
        </g>
        <text x="380.222px" y="312.545px" style="font-family:'Arial-BoldMT', 'Arial', sans-serif;font-weight:700;font-size:6.667px;">bul</text>
        <text x="360.257px" y="357.508px" style="font-family:'Arial-BoldMT', 'Arial', sans-serif;font-weight:700;font-size:6.667px;">gre</text>
        <g transform="matrix(1,0,0,1,-3.35542,2.72628)">
            <text x="343.917px" y="344.716px" style="font-family:'Arial-BoldMT', 'Arial', sans-serif;font-weight:700;font-size:6.667px;">alb</text>
        </g>
        <g transform="matrix(1,0,0,1,0.658033,1.24959)">
            <text x="263.334px" y="153.142px" style="font-family:'Arial-BoldMT', 'Arial', sans-serif;font-weight:700;font-size:6.667px;">den</text>
        </g>
        <text x="301.292px" y="97.254px" style="font-family:'Arial-BoldMT', 'Arial', sans-serif;font-weight:700;font-size:6.667px;">swe</text>
        <text x="263.963px" y="100.399px" style="font-family:'Arial-BoldMT', 'Arial', sans-serif;font-weight:700;font-size:6.667px;">nor</text>
        <text x="295.026px" y="281.263px" style="font-family:'Arial-BoldMT', 'Arial', sans-serif;font-weight:700;font-size:6.667px;fill:white;">tri</text>
    </g>
    <g id="units" transform="matrix(1,0,0,1,-0.370466,-0.185229)">
        <g transform="matrix(0.803517,0,0,0.803517,82.1205,-128.652)">
            <rect x="98.431" y="291.241" width="9.956" height="9.956"/>
        </g>
        <g transform="matrix(0.803517,0,0,0.803517,71.5509,-55.8387)">
            <rect x="98.431" y="291.241" width="9.956" height="9.956"/>
        </g>
        <g transform="matrix(0.803517,0,0,0.803517,65.3433,-37.3838)">
            <rect x="98.431" y="291.241" width="9.956" height="9.956"/>
        </g>
        <g transform="matrix(0.803517,0,0,0.803517,40.1775,-66.2406)">
            <rect x="98.431" y="291.241" width="9.956" height="9.956"/>
        </g>
        <g transform="matrix(0.803517,0,0,0.803517,0.604341,-131.441)">
            <rect x="98.431" y="291.241" width="9.956" height="9.956"/>
        </g>
        <g transform="matrix(0.803517,0,0,0.803517,-17.7457,-9.80631)">
            <rect x="98.431" y="291.241" width="9.956" height="9.956"/>
        </g>
        <g transform="matrix(0.803517,0,0,0.803517,69.0343,-1.5225)">
            <rect x="98.431" y="291.241" width="9.956" height="9.956"/>
        </g>
        <g transform="matrix(0.803517,0,0,0.803517,65.2594,42.7579)">
            <rect x="98.431" y="291.241" width="9.956" height="9.956"/>
        </g>
        <g transform="matrix(0.803517,0,0,0.803517,122.847,44.0374)">
            <rect x="98.431" y="291.241" width="9.956" height="9.956"/>
        </g>
        <g transform="matrix(0.803517,0,0,0.803517,155.647,46.1133)">
            <rect x="98.431" y="291.241" width="9.956" height="9.956"/>
        </g>
        <g transform="matrix(0.803517,0,0,0.803517,176.408,53.4534)">
            <rect x="98.431" y="291.241" width="9.956" height="9.956"/>
        </g>
        <g transform="matrix(0.803517,0,0,0.803517,173.263,76.1026)">
            <rect x="98.431" y="291.241" width="9.956" height="9.956"/>
        </g>
        <g transform="matrix(0.803517,0,0,0.803517,184.168,88.2661)">
            <rect x="98.431" y="291.241" width="9.956" height="9.956"/>
        </g>
        <g transform="matrix(0.803517,0,0,0.803517,213.738,97.4935)">
            <rect x="98.431" y="291.241" width="9.956" height="9.956"/>
        </g>
        <g transform="matrix(0.803517,0,0,0.803517,208.075,115.948)">
            <rect x="98.431" y="291.241" width="9.956" height="9.956"/>
        </g>
        <g transform="matrix(0.803517,0,0,0.803517,19.3318,47.1619)">
            <rect x="98.431" y="291.241" width="9.956" height="9.956"/>
        </g>
        <g transform="matrix(0.803517,0,0,0.803517,19.2899,101.478)">
            <rect x="98.431" y="291.241" width="9.956" height="9.956"/>
        </g>
        <g transform="matrix(0.803517,0,0,0.803517,74.9587,119.933)">
            <rect x="98.431" y="291.241" width="9.956" height="9.956"/>
        </g>
        <g transform="matrix(0.803517,0,0,0.803517,121.096,80.0872)">
            <rect x="98.431" y="291.241" width="9.956" height="9.956"/>
        </g>
        <g transform="matrix(0.803517,0,0,0.803517,176.67,117.049)">
            <rect x="98.431" y="291.241" width="9.956" height="9.956"/>
        </g>
        <g transform="matrix(0.803517,0,0,0.803517,255.576,141.167)">
            <rect x="98.431" y="291.241" width="9.956" height="9.956"/>
        </g>
        <g transform="matrix(0.803517,0,0,0.803517,230.41,87.1651)">
            <rect x="98.431" y="291.241" width="9.956" height="9.956"/>
        </g>
        <g transform="matrix(0.803517,0,0,0.803517,315.344,118.36)">
            <rect x="98.431" y="291.241" width="9.956" height="9.956"/>
        </g>
        <g transform="matrix(0.803517,0,0,0.803517,407.715,147.72)">
            <rect x="98.431" y="291.241" width="9.956" height="9.956"/>
        </g>
        <g transform="matrix(0.803517,0,0,0.803517,392.511,59.1157)">
            <rect x="98.431" y="291.241" width="9.956" height="9.956"/>
        </g>
        <g transform="matrix(0.803517,0,0,0.803517,16.1861,145.518)">
            <rect x="98.431" y="291.241" width="9.956" height="9.956"/>
        </g>
        <g transform="matrix(0.803517,0,0,0.803517,130.78,155.094)">
            <rect x="98.431" y="291.241" width="9.956" height="9.956"/>
        </g>
        <g transform="matrix(0.803517,0,0,0.803517,-15.2712,60.7934)">
            <rect x="98.431" y="291.241" width="9.956" height="9.956"/>
        </g>
        <g transform="matrix(0.803517,0,0,0.803517,124.399,-3.79889)">
            <rect x="98.431" y="291.241" width="9.956" height="9.956"/>
        </g>
        <g transform="matrix(0.803517,0,0,0.803517,96.507,2.28286)">
            <rect x="98.431" y="291.241" width="9.956" height="9.956"/>
        </g>
        <g transform="matrix(0.803517,0,0,0.803517,112.026,-24.7704)">
            <rect x="98.431" y="291.241" width="9.956" height="9.956"/>
        </g>
        <g transform="matrix(0.803517,0,0,0.803517,132.578,-33.9979)">
            <rect x="98.431" y="291.241" width="9.956" height="9.956"/>
        </g>
        <g transform="matrix(0.803517,0,0,0.803517,144.76,-46.254)">
            <rect x="98.431" y="291.241" width="9.956" height="9.956"/>
        </g>
        <g transform="matrix(0.803517,0,0,0.803517,177.247,-37.7727)">
            <rect x="98.431" y="291.241" width="9.956" height="9.956"/>
        </g>
        <g transform="matrix(0.803517,0,0,0.803517,176.747,-6.95294)">
            <rect x="98.431" y="291.241" width="9.956" height="9.956"/>
        </g>
        <g transform="matrix(0.803517,0,0,0.803517,160.051,-25.1898)">
            <rect x="98.431" y="291.241" width="9.956" height="9.956"/>
        </g>
        <g transform="matrix(0.803517,0,0,0.803517,199.267,-34.8367)">
            <rect x="98.431" y="291.241" width="9.956" height="9.956"/>
        </g>
        <g transform="matrix(0.803517,0,0,0.803517,231.158,-17.3264)">
            <rect x="98.431" y="291.241" width="9.956" height="9.956"/>
        </g>
        <g transform="matrix(0.803517,0,0,0.803517,259.469,-47.2108)">
            <rect x="98.431" y="291.241" width="9.956" height="9.956"/>
        </g>
        <g transform="matrix(0.803517,0,0,0.803517,212.021,-9.19989)">
            <rect x="98.431" y="291.241" width="9.956" height="9.956"/>
        </g>
        <g transform="matrix(0.803517,0,0,0.803517,199.176,18.0631)">
            <rect x="98.431" y="291.241" width="9.956" height="9.956"/>
        </g>
        <g transform="matrix(0.803517,0,0,0.803517,223.293,13.8688)">
            <rect x="98.431" y="291.241" width="9.956" height="9.956"/>
        </g>
        <g transform="matrix(0.803517,0,0,0.803517,232.468,59.2196)">
            <rect x="98.431" y="291.241" width="9.956" height="9.956"/>
        </g>
        <g transform="matrix(0.803517,0,0,0.803517,261.459,90.036)">
            <rect x="98.431" y="291.241" width="9.956" height="9.956"/>
        </g>
        <g transform="matrix(0.803517,0,0,0.803517,276.559,70.5325)">
            <rect x="98.431" y="291.241" width="9.956" height="9.956"/>
        </g>
        <g transform="matrix(0.803517,0,0,0.803517,343.95,43.8665)">
            <rect x="98.431" y="291.241" width="9.956" height="9.956"/>
        </g>
        <g transform="matrix(0.803517,0,0,0.803517,312.193,91.1597)">
            <rect x="98.431" y="291.241" width="9.956" height="9.956"/>
        </g>
        <g transform="matrix(0.803517,0,0,0.803517,340.024,68.7401)">
            <rect x="98.431" y="291.241" width="9.956" height="9.956"/>
        </g>
        <g transform="matrix(0.803517,0,0,0.803517,281.488,126.752)">
            <rect x="98.431" y="291.241" width="9.956" height="9.956"/>
        </g>
        <g transform="matrix(0.803517,0,0,0.803517,261.304,30.9081)">
            <rect x="98.431" y="291.241" width="9.956" height="9.956"/>
        </g>
        <g transform="matrix(0.803517,0,0,0.803517,264.712,-2.6463)">
            <rect x="98.431" y="291.241" width="9.956" height="9.956"/>
        </g>
        <g transform="matrix(0.803517,0,0,0.803517,280.441,-24.1421)">
            <rect x="98.431" y="291.241" width="9.956" height="9.956"/>
        </g>
        <g transform="matrix(0.803517,0,0,0.803517,292.761,-55.5994)">
            <rect x="98.431" y="291.241" width="9.956" height="9.956"/>
        </g>
        <g transform="matrix(0.803517,0,0,0.803517,366.864,-174.308)">
            <rect x="98.431" y="291.241" width="9.956" height="9.956"/>
        </g>
        <g transform="matrix(0.803517,0,0,0.803517,318.546,-104.012)">
            <rect x="98.431" y="291.241" width="9.956" height="9.956"/>
        </g>
        <g transform="matrix(0.803517,0,0,0.803517,349.122,-218.181)">
            <rect x="98.431" y="291.241" width="9.956" height="9.956"/>
        </g>
        <g transform="matrix(0.803517,0,0,0.803517,152.619,-214.616)">
            <rect x="98.431" y="291.241" width="9.956" height="9.956"/>
        </g>
        <g transform="matrix(0.803517,0,0,0.803517,135.632,-107.428)">
            <rect x="98.431" y="291.241" width="9.956" height="9.956"/>
        </g>
        <g transform="matrix(0.803517,0,0,0.803517,200.644,-99.8787)">
            <rect x="98.431" y="291.241" width="9.956" height="9.956"/>
        </g>
        <g transform="matrix(0.803517,0,0,0.803517,249.298,-73.4546)">
            <rect x="98.431" y="291.241" width="9.956" height="9.956"/>
        </g>
        <g transform="matrix(0.803517,0,0,0.803517,265.56,-105.751)">
            <rect x="98.431" y="291.241" width="9.956" height="9.956"/>
        </g>
        <g transform="matrix(0.803517,0,0,0.803517,293.023,-130.048)">
            <rect x="98.431" y="291.241" width="9.956" height="9.956"/>
        </g>
        <g transform="matrix(0.803517,0,0,0.803517,223.293,-124.019)">
            <rect x="98.431" y="291.241" width="9.956" height="9.956"/>
        </g>
        <g transform="matrix(0.803517,0,0,0.803517,192.131,-152.855)">
            <rect x="98.431" y="291.241" width="9.956" height="9.956"/>
        </g>
        <g transform="matrix(0.803517,0,0,0.803517,182.212,-75.6736)">
            <rect x="98.431" y="291.241" width="9.956" height="9.956"/>
        </g>
        <g transform="matrix(0.803517,0,0,0.803517,155.823,-68.069)">
            <rect x="98.431" y="291.241" width="9.956" height="9.956"/>
        </g>
        <g transform="matrix(0.803517,0,0,0.803517,315.306,-12.3456)">
            <rect x="98.431" y="291.241" width="9.956" height="9.956"/>
        </g>
        <g transform="matrix(0.803517,0,0,0.803517,413.872,9.15015)">
            <rect x="98.431" y="291.241" width="9.956" height="9.956"/>
        </g>
        <g transform="matrix(0.803517,0,0,0.803517,480.351,92.6167)">
            <rect x="98.431" y="291.241" width="9.956" height="9.956"/>
        </g>
        <g transform="matrix(0.803517,0,0,0.803517,426.664,84.8573)">
            <rect x="98.431" y="291.241" width="9.956" height="9.956"/>
        </g>
        <g transform="matrix(0.803517,0,0,0.803517,408.419,117.573)">
            <rect x="98.431" y="291.241" width="9.956" height="9.956"/>
        </g>
        <g transform="matrix(0.803517,0,0,0.803517,368.112,93.4388)">
            <rect x="98.431" y="291.241" width="9.956" height="9.956"/>
        </g>
        <g transform="matrix(0.803517,0,0,0.803517,472.802,134.14)">
            <rect x="98.431" y="291.241" width="9.956" height="9.956"/>
        </g>
        <g transform="matrix(0.803517,0,0,0.803517,373.474,-64.2515)">
            <rect x="98.431" y="291.241" width="9.956" height="9.956"/>
        </g>
        <g transform="matrix(0.803517,0,0,0.803517,105.062,-60.3243)">
            <rect x="98.431" y="291.241" width="9.956" height="9.956"/>
        </g>
        <g transform="matrix(0.803517,0,0,0.803517,98.5622,-88.051)">
            <rect x="98.431" y="291.241" width="9.956" height="9.956"/>
        </g>
        <g transform="matrix(0.803517,0,0,0.803517,96.5158,-119.155)">
            <rect x="98.431" y="291.241" width="9.956" height="9.956"/>
        </g>
        <g transform="matrix(0.803517,0,0,0.803517,85.8493,-99.8497)">
            <rect x="98.431" y="291.241" width="9.956" height="9.956"/>
        </g>
    </g>
    <g id="scs">
        <g transform="matrix(1.203,0,0,1.203,-79.8989,-83.4654)">
            <circle cx="358.976" cy="322.058" r="2.483" style="fill:white;stroke:black;stroke-width:0.55px;"/>
        </g>
        <g transform="matrix(1.2082,0,0,1.2082,-146.251,-105.054)">
            <circle cx="358.976" cy="322.058" r="2.483" style="fill:white;stroke:black;stroke-width:1.1px;"/>
        </g>
        <g transform="matrix(1.2082,0,0,1.2082,-163.44,-109.945)">
            <circle cx="358.976" cy="322.058" r="2.483" style="fill:white;stroke:black;stroke-width:0.55px;"/>
        </g>
        <g transform="matrix(1.2082,0,0,1.2082,-131.877,-145.657)">
            <circle cx="358.976" cy="322.058" r="2.483" style="fill:white;stroke:black;stroke-width:0.55px;"/>
        </g>
        <g transform="matrix(1.2082,0,0,1.2082,-169.516,-147.436)">
            <circle cx="358.976" cy="322.058" r="2.483" style="fill:white;stroke:black;stroke-width:0.55px;"/>
        </g>
        <g transform="matrix(1.2082,0,0,1.2082,-141.509,-185.668)">
            <circle cx="358.976" cy="322.058" r="2.483" style="fill:white;stroke:black;stroke-width:0.55px;"/>
        </g>
        <g transform="matrix(1.2082,0,0,1.2082,-96.3122,-174.405)">
            <circle cx="358.976" cy="322.058" r="2.483" style="fill:white;stroke:black;stroke-width:0.55px;"/>
        </g>
        <g transform="matrix(1.2082,0,0,1.2082,-169.812,-203.598)">
            <circle cx="358.976" cy="322.058" r="2.483" style="fill:white;stroke:black;stroke-width:0.55px;"/>
        </g>
        <g transform="matrix(1.2082,0,0,1.2082,-205.377,-205.08)">
            <circle cx="358.976" cy="322.058" r="2.483" style="fill:white;stroke:black;stroke-width:0.55px;"/>
        </g>
        <g transform="matrix(1.2082,0,0,1.2082,-226.716,-194.262)">
            <circle cx="358.976" cy="322.058" r="2.483" style="fill:white;stroke:black;stroke-width:0.55px;"/>
        </g>
        <g transform="matrix(1.2082,0,0,1.2082,-253.863,-207.777)">
            <circle cx="358.976" cy="322.058" r="2.483" style="fill:white;stroke:black;stroke-width:0.55px;"/>
        </g>
        <g transform="matrix(1.2082,0,0,1.2082,-265.147,-232.985)">
            <circle cx="358.976" cy="322.058" r="2.483" style="fill:white;stroke:black;stroke-width:0.55px;"/>
        </g>
        <g transform="matrix(1.2082,0,0,1.2082,-257.662,-261.128)">
            <circle cx="358.976" cy="322.058" r="2.483" style="fill:white;stroke:black;stroke-width:0.55px;"/>
        </g>
        <g transform="matrix(1.2082,0,0,1.2082,-247.165,-162.551)">
            <circle cx="358.976" cy="322.058" r="2.483" style="fill:white;stroke:black;stroke-width:0.55px;"/>
        </g>
        <g transform="matrix(1.2082,0,0,1.2082,-237.978,-97.9416)">
            <circle cx="358.976" cy="322.058" r="2.483" style="fill:white;stroke:black;stroke-width:0.55px;"/>
        </g>
        <g transform="matrix(1.2082,0,0,1.2082,-168.745,-63.6811)">
            <circle cx="358.976" cy="322.058" r="2.483" style="fill:white;stroke:black;stroke-width:0.55px;"/>
        </g>
        <g transform="matrix(1.2082,0,0,1.2082,-219.721,-7.31123)">
            <circle cx="358.976" cy="322.058" r="2.483" style="fill:white;stroke:black;stroke-width:0.55px;"/>
        </g>
        <g transform="matrix(1.2082,0,0,1.2082,-147.226,-43.0465)">
            <circle cx="358.976" cy="322.058" r="2.483" style="fill:white;stroke:black;stroke-width:0.55px;"/>
        </g>
        <g transform="matrix(1.2082,0,0,1.2082,-336.077,-83.4194)">
            <circle cx="358.976" cy="322.058" r="2.483" style="fill:white;stroke:black;stroke-width:0.55px;"/>
        </g>
        <g transform="matrix(1.2082,0,0,1.2082,-377.579,-77.6402)">
            <circle cx="358.976" cy="322.058" r="2.483" style="fill:white;stroke:black;stroke-width:0.55px;"/>
        </g>
        <g transform="matrix(1.2082,0,0,1.2082,-306.884,-174.998)">
            <circle cx="358.976" cy="322.058" r="2.483" style="fill:white;stroke:black;stroke-width:0.55px;"/>
        </g>
        <g transform="matrix(1.2082,0,0,1.2082,-102.392,-129.537)">
            <circle cx="358.976" cy="322.058" r="2.483" style="fill:white;stroke:black;stroke-width:0.55px;"/>
        </g>
        <g transform="matrix(1.2082,0,0,1.2082,-54.9607,-69.0411)">
            <circle cx="358.976" cy="322.058" r="2.483" style="fill:white;stroke:black;stroke-width:0.55px;"/>
        </g>
        <g transform="matrix(1.2082,0,0,1.2082,-25.1575,-107.694)">
            <circle cx="358.976" cy="322.058" r="2.483" style="fill:white;stroke:black;stroke-width:0.55px;"/>
        </g>
        <g transform="matrix(1.2082,0,0,1.2082,-58.3618,-20.5285)">
            <circle cx="358.976" cy="322.058" r="2.483" style="fill:white;stroke:black;stroke-width:0.55px;"/>
        </g>
        <g transform="matrix(1.2082,0,0,1.2082,-7.4482,-23.5285)">
            <circle cx="358.976" cy="322.058" r="2.483" style="fill:white;stroke:black;stroke-width:0.55px;"/>
        </g>
        <g transform="matrix(1.2082,0,0,1.2082,2.77586,-64.8595)">
            <circle cx="358.976" cy="322.058" r="2.483" style="fill:white;stroke:black;stroke-width:0.55px;"/>
        </g>
        <g transform="matrix(1.2082,0,0,1.2082,49.743,-58.4801)">
            <circle cx="358.976" cy="322.058" r="2.483" style="fill:white;stroke:black;stroke-width:0.55px;"/>
        </g>
        <g transform="matrix(1.2082,0,0,1.2082,46.743,-113.789)">
            <circle cx="358.976" cy="322.058" r="2.483" style="fill:white;stroke:black;stroke-width:0.55px;"/>
        </g>
        <g transform="matrix(1.2082,0,0,1.2082,38.0602,-229.559)">
            <circle cx="358.976" cy="322.058" r="2.483" style="fill:white;stroke:black;stroke-width:0.55px;"/>
        </g>
        <g transform="matrix(1.2082,0,0,1.2082,-23.8768,-264.001)">
            <circle cx="358.976" cy="322.058" r="2.483" style="fill:white;stroke:black;stroke-width:0.55px;"/>
        </g>
        <g transform="matrix(1.2082,0,0,1.2082,-110.704,-268.632)">
            <circle cx="358.976" cy="322.058" r="2.483" style="fill:white;stroke:black;stroke-width:0.55px;"/>
        </g>
        <g transform="matrix(1.2082,0,0,1.2082,-155.276,-277.604)">
            <circle cx="358.976" cy="322.058" r="2.483" style="fill:white;stroke:black;stroke-width:0.55px;"/>
        </g>
        <g transform="matrix(1.2082,0,0,1.2082,-148.909,-226.954)">
            <circle cx="358.976" cy="322.058" r="2.483" style="fill:white;stroke:black;stroke-width:0.55px;"/>
        </g>
    </g>
</svg>
